HIERARCHY
ROOT Bip001_Pelvis
{
  OFFSET 34.4345 95.6767 -26.8758
  CHANNELS 6 Xposition Yposition Zposition Zrotation Xrotation Yrotation
  JOINT Bip001_Spine
  {
    OFFSET 1.4188e-005 10.2191 -0.0116013
    CHANNELS 3 Zrotation Xrotation Yrotation
    JOINT Bip001_L_Thigh
    {
      OFFSET 11.0458 -10.2192 0.0116197
      CHANNELS 3 Zrotation Xrotation Yrotation
      JOINT Bip001_L_Calf
      {
        OFFSET -0.707118 -44.0221 0.360014
        CHANNELS 3 Zrotation Xrotation Yrotation
        JOINT Bip001_L_Foot
        {
          OFFSET -0.651902 -40.5938 -3.56146
          CHANNELS 3 Zrotation Xrotation Yrotation
          JOINT Bip001_L_Toe0
          {
            OFFSET 0.0530839 -10.2181 13.1504
            CHANNELS 3 Zrotation Xrotation Yrotation
            End Site
            {
              OFFSET -1.02532e-005 0 7.55606
            }
          }
        }
      }
    }
    JOINT Bip001_R_Thigh
    {
      OFFSET -11.0458 -10.2191 0.0115893
      CHANNELS 3 Zrotation Xrotation Yrotation
      JOINT Bip001_R_Calf
      {
        OFFSET 0.706994 -44.0221 0.35984
        CHANNELS 3 Zrotation Xrotation Yrotation
        JOINT Bip001_R_Foot
        {
          OFFSET 0.651786 -40.5938 -3.5613
          CHANNELS 3 Zrotation Xrotation Yrotation
          JOINT Bip001_R_Toe0
          {
            OFFSET -0.0531479 -10.2181 13.1504
            CHANNELS 3 Zrotation Xrotation Yrotation
            End Site
            {
              OFFSET -1.02894e-005 0 7.55606
            }
          }
        }
      }
    }
    JOINT Bip001_Spine1
    {
      OFFSET 1.87041e-005 14.5736 1.08638
      CHANNELS 3 Zrotation Xrotation Yrotation
      JOINT Bip001_Spine2
      {
        OFFSET 2.24614e-005 14.5058 -1.69078
        CHANNELS 3 Zrotation Xrotation Yrotation
        JOINT Bip001_Neck
        {
          OFFSET 2.20278e-005 15.3945 -0.489414
          CHANNELS 3 Zrotation Xrotation Yrotation
          JOINT Bip001_L_Clavicle
          {
            OFFSET 6.06036 -0.000579998 0.00836775
            CHANNELS 3 Zrotation Xrotation Yrotation
            JOINT Bip001_L_UpperArm
            {
              OFFSET 11.5509 -0.0600302 0.00193952
              CHANNELS 3 Zrotation Xrotation Yrotation
              JOINT Bip001_L_Forearm
              {
                OFFSET 25.9523 0.0806089 -2.15551
                CHANNELS 3 Zrotation Xrotation Yrotation
                JOINT Bip001_L_Hand
                {
                  OFFSET 32.2475 0.153767 1.63968
                  CHANNELS 3 Zrotation Xrotation Yrotation
                  JOINT Bip001_L_Finger0
                  {
                    OFFSET 6.04639 -2.20976 5.90322
                    CHANNELS 3 Zrotation Xrotation Yrotation
                    End Site
                    {
                      OFFSET 4.22375 -1.43895 0.606485
                    }
                  }
                  JOINT Bip001_L_Finger1
                  {
                    OFFSET 11.0826 -0.704819 -0.198153
                    CHANNELS 3 Zrotation Xrotation Yrotation
                    End Site
                    {
                      OFFSET 6.20027 -0.397518 -0.0787166
                    }
                  }
                }
              }
            }
          }
          JOINT Bip001_R_Clavicle
          {
            OFFSET -6.06037 -0.000563197 0.00835105
            CHANNELS 3 Zrotation Xrotation Yrotation
            JOINT Bip001_R_UpperArm
            {
              OFFSET -11.5509 -0.0599978 0.00190698
              CHANNELS 3 Zrotation Xrotation Yrotation
              JOINT Bip001_R_Forearm
              {
                OFFSET -25.9523 0.0806822 -2.15589
                CHANNELS 3 Zrotation Xrotation Yrotation
                JOINT Bip001_R_Hand
                {
                  OFFSET -32.2475 0.153859 1.63989
                  CHANNELS 3 Zrotation Xrotation Yrotation
                  JOINT Bip001_R_Finger0
                  {
                    OFFSET -6.04641 -2.20976 5.90317
                    CHANNELS 3 Zrotation Xrotation Yrotation
                    End Site
                    {
                      OFFSET -4.22376 -1.43895 0.60647
                    }
                  }
                  JOINT Bip001_R_Finger1
                  {
                    OFFSET -11.0826 -0.704794 -0.198182
                    CHANNELS 3 Zrotation Xrotation Yrotation
                    End Site
                    {
                      OFFSET -6.20028 -0.397504 -0.0787333
                    }
                  }
                }
              }
            }
          }
          JOINT Bip001_Head
          {
            OFFSET 1.09673e-005 11.2744 2.05948
            CHANNELS 3 Zrotation Xrotation Yrotation
            End Site
            {
              OFFSET 2.89576e-005 20.8808 -2.77728e-005
            }
          }
        }
      }
    }
  }
}
MOTION
Frames:	9
Frame Time:	0.04
33.2103 95.2221 -30.4854 0.011139 -3.99145 -7.36419 0.28183 2.89355 -0.926758 5.57783 0.383302 14.0394 -0.355238 11.7459 3.42967 0.0761268 -7.06262 0.043832 1.14581 -4.23781 -0.488614 -5.2763 -5.54683 0.758438 -0.448979 16.9893 2.27081 -7.54767 -8.99748 -1.86679 3.07226 -10.4381 3.68593 0.606681 5.77706 -1.87121 0.606684 5.77707 -1.87122 3.97106 -4.80642 3.32989 -24.5128 8.61686 -8.01506 -42.1791 38.7587 -5.82413 14.1079 -4.20656 -28.6504 8.84759 1.57786 -4.16707 3.18055e-015 0 -3.18055e-015 0 0 -3.18055e-015 23.0071 11.7595 17.8306 55.7289 22.6665 -5.7304 -38.4896 26.884 25.3331 3.93017 -4.50537 5.11619 -3.18055e-015 0 1.59028e-015 -3.18055e-015 3.18056e-015 -0 -2.7681 -4.87559 4.77895 
32.7153 95.0516 -30.6428 0.373624 -3.91841 -8.27425 0.317772 2.92503 -1.13276 5.29075 0.0359624 15.1432 -0.0269521 12.2701 2.62615 1.28363 -6.39247 0.0405836 1.25255 -5.41075 -0.33545 -5.30119 -6.93399 2.20895 -0.170775 18.9881 2.19027 -7.90699 -9.83865 -2.32901 3.02014 -10.266 3.60207 0.694833 5.84315 -2.28623 0.694835 5.84316 -2.28624 4.1524 -4.18762 4.53751 -24.1642 8.4376 -9.13974 -43.0965 37.8842 -6.92149 14.2663 -4.39496 -27.901 9.48073 1.47878 -4.26977 -9.54166e-015 4.77083e-015 -1.59028e-015 -1.27222e-014 4.77083e-015 -0 23.0216 10.7805 17.0696 57.1747 12.8873 -6.68161 -33.0641 28.8421 18.4011 1.01862 -5.63707 0.118672 -1.59028e-015 1.27222e-014 2.38542e-015 1.59028e-015 6.36111e-015 1.59028e-015 -2.82429 -5.59418 6.03635 
32.2982 94.765 -30.8419 0.487616 -4.16362 -9.03445 0.395665 3.03527 -1.32036 5.42344 -0.749354 15.5238 -0.00660098 14.2008 2.61982 2.31528 -6.39717 0.0249611 1.33948 -6.39495 -0.243939 -5.19447 -8.08853 3.01015 -0.050388 21.1072 2.20998 -8.16311 -10.8547 -2.47201 2.9746 -10.1493 3.58198 0.863185 6.06053 -2.66734 0.863186 6.06055 -2.66734 4.66282 -3.66656 5.42731 -24.4435 8.35394 -10.19 -44.4584 36.614 -7.2363 14.176 -4.74763 -27.9366 10.2089 1.66985 -4.23521 3.18055e-015 -1.59028e-015 -1.59028e-015 6.36111e-015 0 -1.59028e-015 22.7459 9.93162 16.1123 56.5966 8.43683 -7.40577 -25.8873 15.0201 12.0552 4.25439 -7.53212 -2.02371 4.74598e-015 -3.18055e-015 1.3418e-015 4.69629e-015 -3.18056e-015 7.45442e-016 -2.99173 -6.22097 7.08808 
31.8371 94.4862 -30.9153 0.0964182 -4.792 -9.69182 0.544553 3.25009 -1.50294 6.11091 -1.13686 15.7146 -0.197429 16.4125 2.88858 2.76222 -7.11158 0.0298393 1.32493 -6.62337 -0.110815 -4.76195 -8.33791 3.96818 0.214882 22.3777 2.14257 -8.38893 -11.6433 -2.68119 2.9756 -10.1388 3.55888 1.17733 6.48456 -3.0441 1.17733 6.48458 -3.04411 5.16966 -3.45454 6.21441 -24.4521 8.52121 -11.2401 -46.1694 35.8989 -7.19152 13.858 -5.07056 -28.6602 11.2289 1.9018 -4.24263 3.18055e-015 -4.77083e-015 -0 3.18055e-015 -6.36111e-015 -0 22.5307 9.23995 14.678 55.5037 9.79225 -7.95673 -19.7294 -1.1072 7.76382 4.74361 -10.0453 -5.55788 1.78906e-015 0 -0 -2.5842e-015 0 -0 -3.00148 -6.58769 8.00626 
31.3685 94.1682 -30.9493 -0.552496 -5.50067 -10.4132 0.702685 3.47588 -1.63973 7.16119 -1.33084 17.1712 -0.263877 18.727 1.82943 3.08448 -8.08571 0.0592253 1.24952 -6.85041 0.150688 -4.01355 -8.42317 4.97951 0.360463 23.629 2.38613 -8.88651 -12.3033 -3.23702 2.9856 -10.1671 3.5629 1.5091 6.92988 -3.33129 1.5091 6.92989 -3.33129 5.42708 -3.4515 6.93214 -23.8989 8.78526 -12.2519 -47.9055 36.2913 -6.88068 13.6481 -5.06764 -29.5082 11.8857 1.62613 -4.79778 -3.18055e-015 3.18055e-015 -0 -3.18055e-015 4.77083e-015 -0 23.1708 8.86095 13.311 53.9326 13.1154 -8.82146 -15.2017 -14.3177 5.66596 3.17769 -9.26045 -8.98381 -3.97569e-016 -1.59028e-015 -3.18055e-015 -1.68967e-015 -7.95139e-016 -3.18055e-015 -2.68409 -6.72399 8.72173 
31.0387 93.9106 -31.0422 -0.837162 -5.87165 -11.3039 0.802371 3.58434 -1.71968 7.75998 -1.41529 17.0685 -0.896244 20.1172 2.74644 3.69176 -8.39729 0.0791932 1.37093 -7.19283 0.0887762 -3.69534 -9.03017 5.98928 0.754897 25.1165 1.93048 -9.1427 -12.9073 -3.15154 2.97231 -10.1593 3.59512 1.71743 7.14252 -3.49982 1.71743 7.14254 -3.49983 6.07664 -2.15734 7.63193 -24.2782 7.95948 -13.5812 -49.148 38.1748 -6.09681 14.2573 -4.33665 -30.6056 11.452 1.03992 -5.99451 -6.36111e-015 7.95139e-016 3.97569e-015 -3.18055e-015 -2.38542e-015 3.18055e-015 23.2168 7.27601 12.2995 52.6767 15.823 -9.87464 -13.695 -20.4364 5.60755 4.87456 -7.17838 -11.5363 3.97569e-016 0 -0 -3.97569e-016 7.95139e-016 -0 -3.42776 -8.42733 9.78519 
30.7756 93.7421 -31.0553 -1.32932 -6.31455 -11.7014 0.939623 3.76289 -1.88659 8.32384 -1.42102 16.2321 -1.46335 21.1773 3.87429 4.39968 -8.48826 0.0931187 1.4677 -7.62056 0.140292 -3.52099 -9.06227 7.03697 1.79452 25.7325 1.41665 -9.44263 -13.2361 -3.64221 2.92633 -10.0213 3.54527 2.00967 7.49216 -3.84728 2.00968 7.49217 -3.84729 6.29318 -1.69889 8.30327 -24.4888 7.85499 -14.3584 -49.7904 39.9173 -5.33817 16.1468 -2.51758 -32.0248 9.02977 0.406192 -7.36323 6.36111e-015 1.19271e-015 -2.38542e-015 3.18055e-015 7.95139e-016 -1.19271e-015 22.7481 6.1976 10.6786 52.5642 15.5379 -10.191 -16.325 -12.5111 6.35645 9.85177 -8.14548 -7.16782 -7.95139e-016 -3.97569e-016 -3.18055e-015 -8.44835e-016 -9.93924e-016 -0 -4.17583 -9.8161 10.5869 
30.4734 93.5679 -30.927 -2.20928 -7.09804 -11.6563 1.06281 3.97705 -2.05635 9.32284 -1.16382 16.3029 -1.62679 22.5522 3.52143 5.03502 -8.82704 0.120267 1.52337 -7.91101 0.205182 -2.72256 -8.26607 7.25841 1.81966 25.9398 1.58244 -9.67126 -13.4147 -4.08124 2.95609 -10.0913 3.55953 2.27657 7.9125 -4.20156 2.27658 7.91253 -4.20157 5.21474 -3.15398 8.90759 -23.1139 9.20435 -14.2159 -50.1675 41.2811 -4.64545 18.7125 0.550143 -33.1262 6.74173 0.143101 -8.1577 3.18055e-015 -3.97569e-016 2.18663e-015 5.17255e-032 -1.98785e-015 1.49089e-015 23.6525 6.68978 8.4149 52.2337 7.18524 -9.96496 -20.4887 1.66513 10.7919 10.6793 -9.9865 -1.35917 1.59028e-015 -3.97569e-016 1.59028e-015 3.47873e-016 -3.97569e-016 -0 -2.0717 -8.12238 10.5702 
30.1714 93.4677 -30.7457 -3.12496 -7.77705 -11.3511 1.14629 4.09246 -2.16266 10.5938 -0.78092 15.7648 -2.24022 23.7289 3.784 4.65591 -9.82977 0.157894 1.46053 -7.73947 0.285454 -1.74522 -7.10616 7.08696 1.44519 25.6299 1.70995 -9.85634 -13.3827 -4.25955 3.07241 -10.4483 3.70427 2.45685 8.13765 -4.42321 2.45824 8.13758 -4.42383 5.13759 -2.93964 9.57839 -22.847 9.1132 -14.4613 -50.5857 42.3823 -3.89657 20.396 2.02148 -33.709 4.61156 0.289566 -7.97297 6.89673e-033 3.97569e-016 -9.93923e-016 3.18055e-015 1.19271e-015 2.38542e-015 23.3743 5.57728 6.03 53.0701 -3.3024 -10.5731 -27.8954 9.63367 19.748 10.3394 -13.9627 2.74328 -3.14328e-015 -7.95139e-016 1.98785e-016 -7.3923e-016 -7.95139e-016 1.98785e-016 -2.10131 -8.44402 11.1857 
